<svg xmlns="http://www.w3.org/2000/svg" version="1.1" xmlns:xlink="http://www.w3.org/1999/xlink" xmlns:svgjs="http://svgjs.dev/svgjs" width="765" height="625" viewBox="0 0 366.33599853515625 300" style="background: rgb(0, 0, 0) none repeat scroll 0% 0%;" class="svg-animations "><svg viewBox="0 0 134 139" width="150" height="150" fill="#3cff00" x="30.527999877929688" y="75"><svg width="134" height="134" viewBox="0 0 134 134" xmlns="http://www.w3.org/2000/svg">
	<path d="M67 0C29.9943 0 0 29.9943 0 67C0 104.006 29.9943 134 67 134C104.006 134 134 104.006 134 67C134 29.9943 104.006 0 67 0ZM76.208 89.4119C65.6101 94.9715 54.6896 98.955 43.7938 101.4C47.3058 90.5908 49.068 79.3601 49.068 68.1293C49.068 56.8985 47.3058 45.6677 43.7938 34.8589C54.6896 37.2912 65.6101 41.2871 76.208 46.8466C86.8059 52.3938 97.0935 59.5169 106.699 68.1293C97.0811 76.754 86.8059 83.8648 76.208 89.4119Z"></path>
	</svg></svg><svg fill="#ffffff" x="190.5279998779297" y="125.54500007629395"><path d="M6.52 40.73Q5.04 40.99 3.29 41.36Q1.54 41.73 0.21 42.05L0.21 42.05Q0.85 39.77 1.46 36.94Q2.07 34.10 2.68 30.98Q3.29 27.85 3.84 24.64Q4.40 21.44 4.93 18.47L4.93 18.47Q6.04 11.42 7.15 3.89L7.15 3.89L24.91 2.99L23.37 9.51L15.05 9.51L13.41 18.95Q15.05 18.89 16.54 18.89L16.54 18.89Q17.75 18.89 19.03 18.89Q20.30 18.89 20.99 18.84L20.99 18.84Q20.83 20.32 20.59 21.75Q20.35 23.19 20.14 24.62L20.14 24.62Q19.45 24.62 18.18 24.59Q16.91 24.56 15.56 24.51Q14.20 24.46 12.51 24.40L12.51 24.40L10.07 40.04Q8.27 40.36 6.52 40.73L6.52 40.73ZM32.70 40.30Q31.06 40.30 29.23 40.41Q27.40 40.52 25.55 40.73Q23.69 40.94 21.92 41.28Q20.14 41.63 18.71 42.11L18.71 42.11Q19.03 39.72 19.45 36.81Q19.88 33.89 20.43 30.76Q20.99 27.64 21.54 24.46Q22.10 21.28 22.68 18.36L22.68 18.36Q24.01 11.42 25.49 4.21L25.49 4.21L34.77 2.99Q33.34 9.14 32.01 14.97L32.01 14.97Q31.43 17.46 30.85 20.14Q30.26 22.81 29.73 25.36Q29.20 27.90 28.78 30.29Q28.36 32.67 28.09 34.53L28.09 34.53Q29.41 34.42 30.93 34.39Q32.44 34.37 33.60 34.37L33.60 34.37Q33.66 35.38 33.76 36.36Q33.87 37.34 34.00 38.13Q34.13 38.93 34.21 39.54Q34.29 40.15 34.34 40.36L34.34 40.36Q33.92 40.36 33.52 40.33Q33.13 40.30 32.70 40.30L32.70 40.30ZM53.58 40.94Q52.26 41.15 50.67 41.42Q49.08 41.68 47.81 41.89L47.81 41.89Q48.02 40.15 48.23 38.45L48.23 38.45Q48.39 36.97 48.52 35.48Q48.65 34.00 48.76 32.94L48.76 32.94L44.15 32.94L42.03 40.57Q40.86 40.73 39.27 40.91Q37.68 41.10 36.30 41.26L36.30 41.26Q34.61 41.47 32.97 41.68L32.97 41.68Q35.09 34.63 37.15 27.80L37.15 27.80Q38.00 24.93 38.93 21.81Q39.86 18.68 40.78 15.58Q41.71 12.48 42.56 9.62Q43.41 6.76 44.04 4.37L44.04 4.37Q47.65 4.11 51.38 3.73Q55.12 3.36 58.67 2.73L58.67 2.73Q58.51 4.42 58.33 6.94Q58.14 9.46 57.98 12.43Q57.82 15.39 57.66 18.63Q57.50 21.86 57.35 24.99L57.35 24.99Q57.08 32.30 56.76 40.52L56.76 40.52Q55.17 40.78 53.58 40.94L53.58 40.94ZM48.71 14.33L45.42 27.64Q45.63 27.64 46.19 27.61Q46.75 27.58 47.36 27.56Q47.97 27.53 48.50 27.50Q49.02 27.48 49.24 27.43L49.24 27.43Q49.24 27.11 49.32 26.34Q49.40 25.57 49.48 24.59Q49.55 23.61 49.66 22.44Q49.77 21.28 49.87 20.16L49.87 20.16Q50.09 17.46 50.40 14.33L50.40 14.33L50.72 9.72L49.93 9.78L48.71 14.33ZM85.86 21.81Q85.49 27.21 83.74 31.21Q81.99 35.22 79.53 37.92Q77.06 40.62 74.23 41.95Q71.39 43.27 68.85 43.27L68.85 43.27Q66.89 43.27 65.11 42.42Q63.34 41.58 62.04 39.85Q60.74 38.13 60.00 35.53Q59.25 32.94 59.25 29.44L59.25 29.44Q59.25 22.60 61.21 17.51Q63.18 12.43 66.17 9.03Q69.16 5.64 72.58 4.00Q76.00 2.36 78.97 2.36L78.97 2.36Q81.09 2.36 82.65 3.10Q84.22 3.84 85.22 5.09Q86.23 6.33 86.68 8.00Q87.13 9.67 87.13 11.53L87.13 11.53L79.87 12.90Q79.39 10.78 78.60 9.88Q77.80 8.98 76.80 8.98L76.80 8.98Q75.47 8.98 73.88 10.86Q72.29 12.74 70.91 15.71Q69.54 18.68 68.58 22.23Q67.63 25.78 67.52 29.23L67.52 29.23Q67.52 32.51 68.50 33.92Q69.48 35.32 71.02 35.32L71.02 35.32Q72.08 35.32 73.22 34.79Q74.36 34.26 75.26 33.28Q76.16 32.30 76.77 31.00Q77.38 29.70 77.43 28.17L77.43 28.17L71.76 29.02L72.77 23.77Q75.26 23.45 77.64 23.13L77.64 23.13Q79.66 22.87 81.91 22.50Q84.16 22.13 85.86 21.81L85.86 21.81ZM105.52 31.66Q104.78 34.69 103.43 36.81Q102.08 38.93 100.25 40.30Q98.42 41.68 96.35 42.32Q94.29 42.95 92.22 42.95L92.22 42.95Q91.00 42.95 89.73 42.56Q88.46 42.16 87.45 41.36Q86.44 40.57 85.78 39.35Q85.12 38.13 85.12 36.49L85.12 36.49Q85.12 36.28 85.12 36.06Q85.12 35.85 85.17 35.64L85.17 35.64Q85.38 33.47 85.86 30.39Q86.34 27.32 86.87 23.98Q87.40 20.64 88.03 17.28Q88.67 13.91 89.17 11.15Q89.68 8.40 90.05 6.57Q90.42 4.74 90.52 4.32L90.52 4.32Q91.64 4.21 93.17 4.05Q94.71 3.89 96.04 3.79L96.04 3.79Q97.68 3.63 99.27 3.47L99.27 3.47Q97.89 9.88 96.83 15.08L96.83 15.08Q96.35 17.30 95.90 19.53Q95.45 21.75 95.06 23.61Q94.66 25.46 94.37 26.82Q94.07 28.17 93.89 29.02Q93.70 29.86 93.47 31.16Q93.23 32.46 93.23 33.52L93.23 33.52Q93.23 34.37 93.65 34.92Q94.07 35.48 94.71 35.48L94.71 35.48Q95.61 35.48 96.19 34.77Q96.78 34.05 97.18 33.04Q97.57 32.04 97.76 31.00Q97.94 29.97 98.10 29.39L98.10 29.39Q98.42 27.85 98.82 25.97Q99.22 24.09 99.61 22.05Q100.01 20.00 100.41 17.89Q100.81 15.77 101.18 13.75L101.18 13.75Q102.08 9.09 102.93 4.11L102.93 4.11L110.98 3.58Q110.98 3.58 110.72 4.95Q110.45 6.33 110.03 8.61Q109.60 10.89 109.10 13.80Q108.60 16.72 107.96 19.87Q107.32 23.03 106.72 26.07Q106.11 29.12 105.52 31.66L105.52 31.66ZM114.69 40.25L105.52 42.05Q107.11 34.90 108.54 28.06L108.54 28.06Q109.13 25.20 109.76 22.02Q110.40 18.84 110.98 15.77Q111.56 12.69 112.09 9.83Q112.62 6.97 113.00 4.58L113.00 4.58Q114.53 4.11 116.02 3.76Q117.50 3.42 119.06 3.15Q120.63 2.89 122.01 2.89L122.01 2.89Q124.39 2.89 126.01 3.68Q127.62 4.48 128.63 5.83Q129.64 7.18 130.06 8.98Q130.49 10.78 130.49 12.85L130.49 12.85Q130.49 15.82 129.40 18.57Q128.31 21.33 126.48 23.48Q124.66 25.62 122.30 26.89Q119.94 28.17 117.39 28.17L117.39 28.17L116.81 28.17Q116.39 29.97 116.02 32.09Q115.65 34.21 115.38 36.01L115.38 36.01Q115.01 38.13 114.69 40.25L114.69 40.25ZM120.31 9.30Q119.73 12.80 119.14 15.92Q118.56 19.05 117.87 22.60L117.87 22.60Q118.72 22.39 119.65 21.62Q120.57 20.85 121.37 19.61Q122.16 18.36 122.64 16.72Q123.12 15.08 123.12 13.27L123.12 13.27Q123.12 11.31 122.24 10.31Q121.37 9.30 120.31 9.30L120.31 9.30Z"></path></svg><svg fill="#ffffff" x="205.84299850463867" y="174.45499992370605"><path d="M6.04 14.54Q5.51 14.64 4.88 14.77Q4.26 14.90 3.78 15.02L3.78 15.02Q4.01 14.20 4.23 13.19Q4.45 12.17 4.66 11.05Q4.88 9.93 5.08 8.78Q5.28 7.63 5.47 6.56L5.47 6.56Q5.87 4.04 6.27 1.34L6.27 1.34L12.63 1.02L12.08 3.35L9.10 3.35L8.51 6.73Q9.10 6.72 9.63 6.72L9.63 6.72Q10.07 6.72 10.53 6.72Q10.98 6.72 11.23 6.70L11.23 6.70Q11.17 7.23 11.09 7.74Q11.00 8.25 10.93 8.77L10.93 8.77Q10.68 8.77 10.22 8.76Q9.77 8.75 9.28 8.73Q8.80 8.71 8.19 8.69L8.19 8.69L7.31 14.30Q6.67 14.41 6.04 14.54L6.04 14.54ZM13.41 14.62Q13.24 14.62 12.74 14.67Q12.24 14.71 11.70 14.78Q11.17 14.85 10.74 14.90Q10.32 14.96 10.28 14.98L10.28 14.98Q10.47 14.16 10.67 13.17Q10.87 12.17 11.08 11.08Q11.29 9.98 11.48 8.86Q11.67 7.74 11.84 6.70L11.84 6.70Q12.24 4.27 12.64 1.70L12.64 1.70L15.60 1.22Q15.16 3.77 14.74 6.22L14.74 6.22Q14.57 7.27 14.39 8.39Q14.21 9.51 14.03 10.61Q13.85 11.71 13.70 12.75Q13.55 13.78 13.41 14.62L13.41 14.62ZM16.89 14.45L14.12 15.10Q14.69 12.36 15.20 9.79L15.20 9.79Q15.39 8.69 15.61 7.51Q15.83 6.34 16.02 5.19Q16.21 4.04 16.36 2.98Q16.51 1.93 16.59 1.07L16.59 1.07Q16.83 1.09 17.01 1.09Q17.18 1.09 17.40 1.09L17.40 1.09Q17.67 1.09 18.05 1.08Q18.43 1.07 18.81 1.05Q19.19 1.04 19.63 1.02L19.63 1.02Q19.89 2.35 20.10 3.58L20.10 3.58Q20.31 4.66 20.53 5.80Q20.75 6.94 20.92 7.74L20.92 7.74Q21.00 7.36 21.09 6.86Q21.19 6.36 21.30 5.80Q21.41 5.25 21.52 4.69Q21.62 4.13 21.74 3.58L21.74 3.58Q22.00 2.35 22.29 1.04L22.29 1.04L24.61 0.75Q23.96 3.66 23.47 6.26L23.47 6.26Q23.24 7.38 23.02 8.53Q22.80 9.68 22.61 10.73Q22.42 11.79 22.29 12.69Q22.15 13.59 22.08 14.20L22.08 14.20Q22.02 14.20 21.63 14.29Q21.24 14.37 20.74 14.49Q20.24 14.60 19.73 14.71Q19.23 14.83 18.98 14.92L18.98 14.92Q18.87 13.40 18.73 12.04L18.73 12.04Q18.68 11.45 18.61 10.83Q18.54 10.21 18.47 9.64Q18.39 9.07 18.32 8.58Q18.24 8.08 18.16 7.72L18.16 7.72Q18.11 8.08 18.01 8.56Q17.92 9.03 17.82 9.57Q17.73 10.10 17.63 10.68Q17.54 11.26 17.42 11.79L17.42 11.79Q17.18 13.06 16.89 14.45L16.89 14.45ZM32.28 5.29Q32.28 6.28 32.00 7.39Q31.71 8.50 31.20 9.59Q30.68 10.69 29.93 11.68Q29.18 12.68 28.23 13.43Q27.28 14.18 26.15 14.64Q25.02 15.10 23.75 15.10L23.75 15.10Q23.48 15.10 23.22 15.07Q22.95 15.04 22.69 15L22.69 15Q23.20 12.38 23.69 9.89L23.69 9.89Q23.88 8.84 24.09 7.71Q24.30 6.58 24.49 5.48Q24.68 4.38 24.86 3.37Q25.04 2.37 25.16 1.55L25.16 1.55Q25.97 1.40 26.81 1.26Q27.64 1.13 28.52 1.13L28.52 1.13Q29.54 1.13 30.26 1.45Q30.97 1.78 31.42 2.35Q31.86 2.92 32.07 3.68Q32.28 4.44 32.28 5.29L32.28 5.29ZM27.80 3.81Q27.59 4.93 27.36 5.96Q27.13 6.98 26.90 8.03Q26.68 9.07 26.45 10.21Q26.22 11.35 26.01 12.70L26.01 12.70Q26.47 12.40 26.89 11.87Q27.32 11.35 27.70 10.67Q28.08 9.98 28.40 9.22Q28.71 8.46 28.94 7.74Q29.16 7.02 29.29 6.39Q29.41 5.77 29.41 5.31L29.41 5.31Q29.41 4.61 29.02 4.21Q28.63 3.81 27.80 3.81L27.80 3.81ZM37.03 14.54Q36.50 14.64 35.87 14.77Q35.24 14.90 34.77 15.02L34.77 15.02Q35.00 14.20 35.22 13.19Q35.43 12.17 35.65 11.05Q35.87 9.93 36.07 8.78Q36.27 7.63 36.46 6.56L36.46 6.56Q36.86 4.04 37.26 1.34L37.26 1.34L43.62 1.02L43.07 3.35L40.09 3.35L39.50 6.73Q40.09 6.72 40.62 6.72L40.62 6.72Q41.06 6.72 41.51 6.72Q41.97 6.72 42.22 6.70L42.22 6.70Q42.16 7.23 42.08 7.74Q41.99 8.25 41.91 8.77L41.91 8.77Q41.67 8.77 41.21 8.76Q40.75 8.75 40.27 8.73Q39.79 8.71 39.18 8.69L39.18 8.69L38.30 14.30Q37.66 14.41 37.03 14.54L37.03 14.54ZM46.42 14.39Q45.83 14.39 45.17 14.43Q44.52 14.47 43.85 14.54Q43.19 14.62 42.55 14.74Q41.91 14.87 41.40 15.04L41.40 15.04Q41.51 14.18 41.67 13.14Q41.82 12.09 42.02 10.97Q42.22 9.85 42.42 8.71Q42.62 7.57 42.83 6.53L42.83 6.53Q43.30 4.04 43.83 1.45L43.83 1.45L47.16 1.02Q46.64 3.22 46.17 5.31L46.17 5.31Q45.96 6.20 45.75 7.16Q45.54 8.12 45.35 9.03Q45.16 9.95 45.01 10.80Q44.86 11.66 44.76 12.32L44.76 12.32Q45.24 12.28 45.78 12.27Q46.32 12.26 46.74 12.26L46.74 12.26Q46.76 12.63 46.80 12.98Q46.83 13.33 46.88 13.61Q46.93 13.90 46.96 14.12Q46.99 14.34 47.01 14.41L47.01 14.41Q46.85 14.41 46.71 14.40Q46.57 14.39 46.42 14.39L46.42 14.39ZM53.90 14.62Q53.43 14.70 52.86 14.79Q52.29 14.89 51.83 14.96L51.83 14.96Q51.91 14.34 51.98 13.73L51.98 13.73Q52.04 13.20 52.09 12.66Q52.14 12.13 52.17 11.75L52.17 11.75L50.52 11.75L49.76 14.49Q49.34 14.54 48.77 14.61Q48.20 14.68 47.71 14.73L47.71 14.73Q47.10 14.81 46.51 14.89L46.51 14.89Q47.27 12.36 48.01 9.91L48.01 9.91Q48.32 8.88 48.65 7.76Q48.98 6.64 49.31 5.53Q49.65 4.42 49.95 3.39Q50.25 2.37 50.48 1.51L50.48 1.51Q51.77 1.42 53.11 1.28Q54.45 1.15 55.73 0.92L55.73 0.92Q55.67 1.53 55.60 2.43Q55.54 3.33 55.48 4.40Q55.42 5.46 55.37 6.62Q55.31 7.78 55.25 8.90L55.25 8.90Q55.16 11.52 55.04 14.47L55.04 14.47Q54.47 14.56 53.90 14.62L53.90 14.62ZM52.15 5.08L50.98 9.85Q51.05 9.85 51.25 9.84Q51.45 9.83 51.67 9.82Q51.89 9.81 52.08 9.80Q52.27 9.79 52.34 9.78L52.34 9.78Q52.34 9.66 52.37 9.39Q52.40 9.11 52.43 8.76Q52.46 8.41 52.50 7.99Q52.53 7.57 52.57 7.17L52.57 7.17Q52.65 6.20 52.76 5.08L52.76 5.08L52.88 3.43L52.59 3.45L52.15 5.08ZM65.47 7.76Q65.34 9.70 64.71 11.13Q64.09 12.57 63.20 13.54Q62.32 14.51 61.30 14.98Q60.29 15.46 59.37 15.46L59.37 15.46Q58.67 15.46 58.04 15.15Q57.40 14.85 56.93 14.23Q56.47 13.61 56.20 12.68Q55.94 11.75 55.94 10.50L55.94 10.50Q55.94 8.05 56.64 6.22Q57.34 4.40 58.42 3.18Q59.49 1.97 60.71 1.38Q61.94 0.79 63.00 0.79L63.00 0.79Q63.76 0.79 64.32 1.05Q64.88 1.32 65.25 1.77Q65.61 2.21 65.77 2.81Q65.93 3.41 65.93 4.08L65.93 4.08L63.33 4.57Q63.16 3.81 62.87 3.49Q62.59 3.16 62.22 3.16L62.22 3.16Q61.75 3.16 61.18 3.84Q60.61 4.51 60.12 5.58Q59.62 6.64 59.28 7.91Q58.94 9.19 58.90 10.42L58.90 10.42Q58.90 11.60 59.25 12.10Q59.60 12.61 60.15 12.61L60.15 12.61Q60.53 12.61 60.94 12.42Q61.35 12.23 61.67 11.87Q62.00 11.52 62.22 11.06Q62.43 10.59 62.45 10.04L62.45 10.04L60.42 10.34L60.78 8.46Q61.67 8.35 62.53 8.24L62.53 8.24Q63.25 8.14 64.06 8.01Q64.87 7.88 65.47 7.76L65.47 7.76ZM73.04 10.31Q73.04 11.37 72.63 12.24Q72.22 13.10 71.53 13.73Q70.83 14.35 69.89 14.70Q68.95 15.04 67.87 15.04L67.87 15.04Q67.11 15.04 66.35 14.63Q65.59 14.22 64.88 13.33L64.88 13.33L66.29 10.57Q66.42 10.82 66.69 11.08Q66.96 11.33 67.29 11.52Q67.62 11.71 67.95 11.84Q68.29 11.96 68.55 11.96L68.55 11.96Q68.78 11.96 69.03 11.88Q69.27 11.81 69.48 11.66Q69.69 11.50 69.82 11.30Q69.94 11.11 69.94 10.84L69.94 10.84Q69.94 10.38 69.64 9.99Q69.35 9.60 68.91 9.25Q68.48 8.90 67.96 8.54Q67.45 8.18 67.02 7.78Q66.59 7.38 66.29 6.89Q65.99 6.39 65.99 5.79L65.99 5.79Q65.99 4.80 66.58 3.94Q67.16 3.09 68.05 2.47Q68.93 1.85 69.98 1.49Q71.02 1.13 71.95 1.13L71.95 1.13Q72.47 1.13 72.92 1.25Q73.38 1.38 73.71 1.65Q74.04 1.93 74.24 2.35Q74.44 2.76 74.44 3.39L74.44 3.39Q74.44 3.66 74.39 3.92Q74.35 4.19 74.31 4.49L74.31 4.49L71.55 5.29Q71.59 5.14 71.62 4.99Q71.65 4.84 71.65 4.68L71.65 4.68Q71.65 4.11 71.45 3.86Q71.25 3.60 70.93 3.60L70.93 3.60Q70.77 3.60 70.56 3.71Q70.34 3.83 70.12 4.01Q69.90 4.19 69.75 4.44Q69.60 4.68 69.60 4.97L69.60 4.97Q69.60 5.42 69.85 5.73Q70.11 6.03 70.49 6.30Q70.87 6.56 71.32 6.84Q71.76 7.12 72.14 7.55Q72.52 7.99 72.78 8.64Q73.04 9.30 73.04 10.31L73.04 10.31ZM78.83 14.54Q78.30 14.64 77.67 14.77Q77.04 14.90 76.57 15.02L76.57 15.02Q76.80 14.20 77.02 13.19Q77.23 12.17 77.45 11.05Q77.67 9.93 77.87 8.78Q78.07 7.63 78.26 6.56L78.26 6.56Q78.66 4.04 79.06 1.34L79.06 1.34L85.42 1.02L84.87 3.35L81.89 3.35L81.30 6.73Q81.89 6.72 82.42 6.72L82.42 6.72Q82.86 6.72 83.31 6.72Q83.77 6.72 84.02 6.70L84.02 6.70Q83.96 7.23 83.88 7.74Q83.79 8.25 83.71 8.77L83.71 8.77Q83.47 8.77 83.01 8.76Q82.55 8.75 82.07 8.73Q81.59 8.71 80.98 8.69L80.98 8.69L80.10 14.30Q79.46 14.41 78.83 14.54L78.83 14.54ZM89.96 14.62Q89.49 14.70 88.92 14.79Q88.35 14.89 87.89 14.96L87.89 14.96Q87.97 14.34 88.05 13.73L88.05 13.73Q88.10 13.20 88.15 12.66Q88.20 12.13 88.24 11.75L88.24 11.75L86.58 11.75L85.82 14.49Q85.40 14.54 84.83 14.61Q84.26 14.68 83.77 14.73L83.77 14.73Q83.16 14.81 82.57 14.89L82.57 14.89Q83.33 12.36 84.07 9.91L84.07 9.91Q84.38 8.88 84.71 7.76Q85.04 6.64 85.38 5.53Q85.71 4.42 86.01 3.39Q86.32 2.37 86.54 1.51L86.54 1.51Q87.84 1.42 89.18 1.28Q90.52 1.15 91.79 0.92L91.79 0.92Q91.73 1.53 91.67 2.43Q91.60 3.33 91.54 4.40Q91.48 5.46 91.43 6.62Q91.37 7.78 91.31 8.90L91.31 8.90Q91.22 11.52 91.10 14.47L91.10 14.47Q90.53 14.56 89.96 14.62L89.96 14.62ZM88.22 5.08L87.04 9.85Q87.11 9.85 87.31 9.84Q87.51 9.83 87.73 9.82Q87.95 9.81 88.14 9.80Q88.33 9.79 88.41 9.78L88.41 9.78Q88.41 9.66 88.44 9.39Q88.46 9.11 88.49 8.76Q88.52 8.41 88.56 7.99Q88.60 7.57 88.63 7.17L88.63 7.17Q88.71 6.20 88.82 5.08L88.82 5.08L88.94 3.43L88.65 3.45L88.22 5.08ZM99.62 10.31Q99.62 11.37 99.21 12.24Q98.80 13.10 98.11 13.73Q97.41 14.35 96.47 14.70Q95.53 15.04 94.45 15.04L94.45 15.04Q93.69 15.04 92.93 14.63Q92.17 14.22 91.47 13.33L91.47 13.33L92.87 10.57Q93.00 10.82 93.27 11.08Q93.54 11.33 93.87 11.52Q94.20 11.71 94.53 11.84Q94.87 11.96 95.13 11.96L95.13 11.96Q95.36 11.96 95.61 11.88Q95.85 11.81 96.06 11.66Q96.27 11.50 96.40 11.30Q96.52 11.11 96.52 10.84L96.52 10.84Q96.52 10.38 96.23 9.99Q95.93 9.60 95.49 9.25Q95.06 8.90 94.54 8.54Q94.03 8.18 93.60 7.78Q93.18 7.38 92.87 6.89Q92.57 6.39 92.57 5.79L92.57 5.79Q92.57 4.80 93.16 3.94Q93.75 3.09 94.63 2.47Q95.51 1.85 96.56 1.49Q97.60 1.13 98.53 1.13L98.53 1.13Q99.05 1.13 99.50 1.25Q99.96 1.38 100.29 1.65Q100.62 1.93 100.82 2.35Q101.02 2.76 101.02 3.39L101.02 3.39Q101.02 3.66 100.98 3.92Q100.93 4.19 100.89 4.49L100.89 4.49L98.13 5.29Q98.17 5.14 98.20 4.99Q98.23 4.84 98.23 4.68L98.23 4.68Q98.23 4.11 98.03 3.86Q97.83 3.60 97.51 3.60L97.51 3.60Q97.36 3.60 97.14 3.71Q96.92 3.83 96.70 4.01Q96.48 4.19 96.33 4.44Q96.18 4.68 96.18 4.97L96.18 4.97Q96.18 5.42 96.43 5.73Q96.69 6.03 97.07 6.30Q97.45 6.56 97.90 6.84Q98.34 7.12 98.72 7.55Q99.10 7.99 99.36 8.64Q99.62 9.30 99.62 10.31L99.62 10.31ZM104.50 14.49L101.08 15.02Q101.52 12.93 101.92 10.90L101.92 10.90Q102.09 10.04 102.26 9.11Q102.43 8.18 102.59 7.28Q102.75 6.37 102.88 5.53Q103.00 4.68 103.09 3.98L103.09 3.98Q102.66 3.92 102.21 3.94Q101.76 3.96 101.33 3.83L101.33 3.83Q101.35 3.52 101.35 3.13Q101.35 2.73 101.36 2.33L101.36 2.33Q101.38 1.89 101.40 1.40L101.40 1.40Q101.90 1.43 102.39 1.45Q102.88 1.47 103.38 1.47L103.38 1.47Q104.35 1.47 105.25 1.42Q106.15 1.38 106.92 1.31Q107.69 1.24 108.43 1.15L108.43 1.15L108.22 2.18Q108.13 2.61 108.04 3.07Q107.96 3.52 107.88 3.85L107.88 3.85Q107.46 3.96 107.04 4.01Q106.61 4.06 106.19 4.13L106.19 4.13Q106.06 4.78 105.91 5.57Q105.75 6.36 105.61 7.20Q105.47 8.05 105.34 8.92Q105.20 9.79 105.07 10.59L105.07 10.59Q104.77 12.47 104.50 14.49L104.50 14.49Z"></path></svg></svg>